<svg xmlns='http://www.w3.org/2000/svg'>
  <defs>
    <symbol viewBox="0 0 256 262" xmlns="http://www.w3.org/2000/svg" id="googleIcon" preserveAspectRatio="xMidYMid">
      <path d="M255.878 133.451c0-10.734-.871-18.567-2.756-26.69H130.55v48.448h71.947c-1.45 12.04-9.283 30.172-26.69 42.356l-.244 1.622 38.755 30.023 2.685.268c24.659-22.774 38.875-56.282 38.875-96.027" fill="#4285F4"/>
      <path d="M130.55 261.1c35.248 0 64.839-11.605 86.453-31.622l-41.196-31.913c-11.024 7.688-25.82 13.055-45.257 13.055-34.523 0-63.824-22.773-74.269-54.25l-1.531.13-40.298 31.187-.527 1.465C35.393 231.798 79.49 261.1 130.55 261.1" fill="#34A853"/>
      <path d="M56.281 156.37c-2.756-8.123-4.351-16.827-4.351-25.82 0-8.994 1.595-17.697 4.206-25.82l-.073-1.73L15.26 71.312l-1.335.635C5.077 89.644 0 109.517 0 130.55s5.077 40.905 13.925 58.602l42.356-32.782" fill="#FBBC05"/>
      <path d="M130.55 50.479c24.514 0 41.05 10.589 50.479 19.438l36.844-35.974C195.245 12.91 165.798 0 130.55 0 79.49 0 35.393 29.301 13.925 71.947l42.211 32.783c10.59-31.477 39.891-54.251 74.414-54.251" fill="#EB4335"/>
    </symbol>

    <symbol xmlns="http://www.w3.org/2000/svg" fill="none" id="githubIcon" stroke="currentColor" stroke-width="2" stroke-linecap="round" stroke-linejoin="round" class="lucide lucide-github">
      <path d="M15 22v-4a4.8 4.8 0 0 0-1-3.5c3 0 6-2 6-5.5.08-1.25-.27-2.48-1-3.5.28-1.15.28-2.35 0-3.5 0 0-1 0-3 1.5-2.64-.5-5.36-.5-8 0C6 2 5 2 5 2c-.3 1.15-.3 2.35 0 3.5A5.403 5.403 0 0 0 4 9c0 3.5 3 5.5 6 5.5-.39.49-.68 1.05-.85 1.65-.17.6-.22 1.23-.15 1.85v4"/>
      <path d="M9 18c-4.51 2-5-2-7-2"/>
    </symbol>

    <symbol xmlns="http://www.w3.org/2000/svg" viewBox="0 0 21 21" id="navIcon">
      <g fill="none" stroke="currentColor">
        <path d="m2.5 10.5 8 4 8.017-4M2.5 14.5l8 4 8.017-4M2.5 6.657l8.008 3.843 8.009-3.843L10.508 2.5z"/>
      </g>
    </symbol>

    <symbol xmlns="http://www.w3.org/2000/svg" fill="none" id="openMenu" stroke="currentColor" stroke-width="2" stroke-linecap="round" stroke-linejoin="round">
      <path d="M3 6h18M3 12h18M3 18h18"/>
    </symbol>

    <symbol xmlns="http://www.w3.org/2000/svg" fill="none" stroke="currentColor" id="closeMenu" stroke-width="2" stroke-linecap="round" stroke-linejoin="round">
      <path d="M18 6 6 18M6 6l12 12"/>
    </symbol>

    <symbol xmlns="http://www.w3.org/2000/svg" viewBox="0 0 21 21" id="commentIcon">
      <g fill="none" stroke="currentColor">
        <path d="M13.418 4.214A9.283 9.283 0 0 0 10.5 3.75c-4.418 0-8 3.026-8 6.759 0 1.457.546 2.807 1.475 3.91L3 19l3.916-2.447a9.181 9.181 0 0 0 3.584.714c4.418 0 8-3.026 8-6.758 0-.685-.12-1.346-.345-1.969M16.5 3.5v4M18.5 5.5h-4"/>
      </g>
    </symbol>

    <symbol xmlns="http://www.w3.org/2000/svg" viewBox="0 0 24 24" id="close" fill="none" stroke="currentColor" stroke-width="2" stroke-linecap="round" stroke-linejoin="round">
      <path d="M18 6 6 18M6 6l12 12"/>
    </symbol>

    <symbol xmlns="http://www.w3.org/2000/svg" viewBox="0 0 24 24" id="emptyHeart" fill="none" stroke="currentColor" stroke-width="1.2" stroke-linecap="round" stroke-linejoin="round">
      <path d="M19 14c1.49-1.46 3-3.21 3-5.5A5.5 5.5 0 0 0 16.5 3c-1.76 0-3 .5-4.5 2-1.5-1.5-2.74-2-4.5-2A5.5 5.5 0 0 0 2 8.5c0 2.3 1.5 4.05 3 5.5l7 7Z"/>
    </symbol>

    <symbol xmlns="http://www.w3.org/2000/svg" viewBox="0 0 24 24" id="filledHeart" fill="currentColor">
      <path d="M19 14c1.49-1.46 3-3.21 3-5.5A5.5 5.5 0 0 0 16.5 3c-1.76 0-3 .5-4.5 2-1.5-1.5-2.74-2-4.5-2A5.5 5.5 0 0 0 2 8.5c0 2.3 1.5 4.05 3 5.5l7 7Z"/>
      <circle cx="12" cy="8" r="3.5"/>
    </symbol>

    <symbol xmlns="http://www.w3.org/2000/svg" viewBox="0 0 24 24" id="asideHome" fill="none" stroke="currentColor" stroke-width="2" stroke-linecap="round" stroke-linejoin="round">
      <path d="m3 9 9-7 9 7v11a2 2 0 0 1-2 2H5a2 2 0 0 1-2-2z"/>
      <path d="M9 22V12h6v10"/>
    </symbol>

    <symbol xmlns="http://www.w3.org/2000/svg" viewBox="0 0 24 24" id="asideProfile" fill="none" stroke="currentColor" stroke-width="2" stroke-linecap="round" stroke-linejoin="round">
      <path d="M19 21v-2a4 4 0 0 0-4-4H9a4 4 0 0 0-4 4v2"/>
      <circle cx="12" cy="7" r="4"/>
    </symbol>

    <symbol xmlns="http://www.w3.org/2000/svg" viewBox="0 0 24 24" id="asideLikes" fill="none" stroke="currentColor" stroke-width="2" stroke-linecap="round" stroke-linejoin="round">
      <path d="M19 14c1.49-1.46 3-3.21 3-5.5A5.5 5.5 0 0 0 16.5 3c-1.76 0-3 .5-4.5 2-1.5-1.5-2.74-2-4.5-2A5.5 5.5 0 0 0 2 8.5c0 2.3 1.5 4.05 3 5.5l7 7Z"/>
      <path d="M12 5 9.04 7.96a2.17 2.17 0 0 0 0 3.08v0c.82.82 2.13.85 3 .07l2.07-1.9a2.82 2.82 0 0 1 3.79 0l2.96 2.66M18 15l-2-2M15 18l-2-2"/>
    </symbol>

    <symbol xmlns="http://www.w3.org/2000/svg" viewBox="0 0 24 24" id="asideMedia" fill="none" stroke="currentColor" stroke-width="2" stroke-linecap="round" stroke-linejoin="round">
      <rect width="18" height="18" x="3" y="3" rx="2" ry="2"/>
      <circle cx="9" cy="9" r="2"/>
      <path d="m21 15-3.086-3.086a2 2 0 0 0-2.828 0L6 21"/>
    </symbol>

    <symbol xmlns="http://www.w3.org/2000/svg" viewBox="0 0 24 24" id="asideReplies" fill="none" stroke="currentColor" stroke-width="2" stroke-linecap="round" stroke-linejoin="round">
      <path d="m3 21 1.9-5.7a8.5 8.5 0 1 1 3.8 3.8z"/>
    </symbol>

    <symbol xmlns="http://www.w3.org/2000/svg" viewBox="0 0 24 24" id="asideUserLogout" fill="none" stroke="currentColor" stroke-width="2" stroke-linecap="round" stroke-linejoin="round">
      <path d="M9 21H5a2 2 0 0 1-2-2V5a2 2 0 0 1 2-2h4M16 17l5-5-5-5M21 12H9"/>
    </symbol>

    <symbol xmlns="http://www.w3.org/2000/svg" viewBox="0 0 24 24" id="toggleMoreInfo" fill="none" stroke="currentColor" stroke-width="2" stroke-linecap="round" stroke-linejoin="round">
      <circle cx="12" cy="12" r="1"/>
      <circle cx="19" cy="12" r="1"/>
      <circle cx="5" cy="12" r="1"/>
    </symbol>

    <symbol xmlns="http://www.w3.org/2000/svg" viewBox="0 0 24 24" id="deleteIcon" fill="none" stroke="currentColor" stroke-width="2" stroke-linecap="round" stroke-linejoin="round">
      <path d="M3 6h18M19 6v14c0 1-1 2-2 2H7c-1 0-2-1-2-2V6M8 6V4c0-1 1-2 2-2h4c1 0 2 1 2 2v2M10 11v6M14 11v6"/>
    </symbol>

    <symbol xmlns="http://www.w3.org/2000/svg" viewBox="0 0 24 24" id="followUser" fill="none" stroke="currentColor" stroke-width="2" stroke-linecap="round" stroke-linejoin="round">
      <path d="M16 21v-2a4 4 0 0 0-4-4H6a4 4 0 0 0-4 4v2"/>
      <circle cx="9" cy="7" r="4"/>
      <path d="M19 8v6M22 11h-6"/>
    </symbol>

    <symbol xmlns="http://www.w3.org/2000/svg" viewBox="0 0 24 24" id="unfollowUser" fill="none" stroke="currentColor" stroke-width="2" stroke-linecap="round" stroke-linejoin="round">
      <path d="M16 21v-2a4 4 0 0 0-4-4H6a4 4 0 0 0-4 4v2"/>
      <circle cx="9" cy="7" r="4"/>
      <path d="M22 11h-6"/>
    </symbol>

    <symbol xmlns="http://www.w3.org/2000/svg" viewBox="0 0 24 24" id="submitComment" fill="none" stroke="currentColor" stroke-width="2" stroke-linecap="round" stroke-linejoin="round">
      <path d="m3 3 3 9-3 9 19-9ZM6 12h16"/>
    </symbol>

    <symbol xmlns="http://www.w3.org/2000/svg" viewBox="0 0 24 24" id="selectImagePost" fill="none" stroke="currentColor" stroke-width="2" stroke-linecap="round" stroke-linejoin="round">
      <path d="M21 12v7a2 2 0 0 1-2 2H5a2 2 0 0 1-2-2V5a2 2 0 0 1 2-2h7M16 5h6M19 2v6"/>
      <circle cx="9" cy="9" r="2"/>
      <path d="m21 15-3.086-3.086a2 2 0 0 0-2.828 0L6 21"/>
    </symbol>

    <symbol xmlns="http://www.w3.org/2000/svg" viewBox="0 0 24 24" id="uploadImageProfile" fill="none" stroke="currentColor" stroke-width="2" stroke-linecap="round" stroke-linejoin="round">
      <path d="M4 14.899A7 7 0 1 1 15.71 8h1.79a4.5 4.5 0 0 1 2.5 8.242M12 12v9"/>
      <path d="m16 16-4-4-4 4"/>
    </symbol>

    <symbol xmlns="http://www.w3.org/2000/svg" viewBox="0 0 24 24" id="searchIcon" fill="none" stroke="currentColor" stroke-width="2" stroke-linecap="round" stroke-linejoin="round">
      <circle cx="11" cy="11" r="8"/>
      <path d="m21 21-4.3-4.3"/>
    </symbol>

    <symbol xmlns="http://www.w3.org/2000/svg" viewBox="0 0 24 24" id="right" fill="none" stroke="currentColor" stroke-width="2" stroke-linecap="round" stroke-linejoin="round">
      <path d="m9 18 6-6-6-6"/>
    </symbol>

    <symbol xmlns="http://www.w3.org/2000/svg" viewBox="0 0 24 24" id="left" fill="none" stroke="currentColor" stroke-width="2" stroke-linecap="round" stroke-linejoin="round">
      <path d="m15 18-6-6 6-6"/>
    </symbol>
  </defs>
</svg>